<svg version="1" xmlns="http://www.w3.org/2000/svg" width="1346.667" height="1346.667" viewBox="0 0 1010.000000 1010.000000"><path d="M499.7 36.6c-.1.1-14.1.5-31.2.8-17 .4-33.9.9-37.5 1-9.5.5-30 1.7-34 2.1-1.9.1-7.5.6-12.5 1-4.9.3-10.8.8-13 1.1-4.3.4-9.8 1-18.5 1.9-5 .5-9.1 1-16 2-1.4.2-4.5.7-7 1-2.5.3-5.7.8-7.2 1.1-1.6.2-4.3.6-6 .9-1.8.3-7.8 1.4-13.3 2.5-5.5 1.1-10.9 2.2-12 2.4-8.7 1.7-25.4 7.2-33.7 11-11.7 5.4-31.4 22.7-47.2 41.7-40.2 48.2-79.8 107.9-126.1 190.4-11.8 20.9-45.5 86.9-45.5 89 0 .2-1.5 3.6-3.4 7.7C15.8 437.3 1.6 480.6.7 501c-.6 13.8 2.4 29.2 10.8 54.5 6.3 19.2 14.7 39.9 28.5 70 10.2 22.4 39.3 79 46.7 90.7 1.3 2.1 2.3 4 2.3 4.2 0 .3 2.9 5.5 6.5 11.7 3.6 6.1 6.5 11.3 6.5 11.4 0 .1 4.3 7.3 9.6 16.1 5.3 8.7 10.4 17.1 11.3 18.6C141 809 184.8 872.4 200.7 891c1.1 1.4 5.1 6.1 8.8 10.5 17.2 20.5 36.1 37.3 48.7 43.3 5.2 2.4 22.5 8.3 28.7 9.7 3.6.9 26.8 5.4 30.1 6 1.9.3 4.6.8 6 1 1.4.3 4.5.7 7 1 2.5.3 5.6.8 7 1 5.4.8 8.7 1.2 35.5 4 3.3.4 8.5.8 11.5 1 3 .2 8.4.6 12 .9 28.7 2.4 65.1 3.6 111 3.6 36.8 0 48.5-.3 91-2.5 14.2-.7 43.5-3.1 50-4 1.4-.2 5.7-.7 9.5-1.1 3.9-.3 7.7-.8 8.6-.9.9-.2 4-.6 7-1 3-.3 6.5-.8 7.9-1 2.4-.4 6.1-1.1 12.5-2.1 1.7-.2 4.1-.6 5.5-.9 1.4-.3 4.1-.7 6-1 16.2-2.6 44.6-11.7 53.1-17.1 13.4-8.3 34.9-29.6 51.4-50.8 1.7-2.1 3.5-4.4 4-5 7.6-8 56.6-78.4 62.5-89.6.7-1.4 1.6-2.7 1.9-3 .4-.3 1.6-2.1 2.8-4 1.1-1.9 6.5-10.9 12-20 13.1-21.6 29.9-50.8 38.5-67 1.1-1.9 5.2-9.8 9.3-17.5C966 636.8 991 580.6 1000 551c1.7-5.8 3.6-11.6 4.1-13 .4-1.4 1.1-3.6 1.4-5 .2-1.4 1.2-5.9 2-10 2.6-11.9 2.2-26.4-1-40.5-4.8-21.5-15.9-52.2-31.3-86.5-10.8-24.2-37.1-76.8-40.3-80.7-.8-.9-1.3-1.8-1.1-2 .3-.4-8.8-17.1-13.9-25.6-1.6-2.7-2.9-5-2.9-5.3 0-.3-4.1-7.5-9.2-16.2-8-13.7-13.1-22.2-27.8-46.2-1.9-3-3.8-5.7-4.2-5.8-.4-.2-.8-.8-.8-1.3 0-1.7-42.4-64.7-45-66.9-.3-.3-3-3.9-6-8s-5.7-7.7-6-8c-.3-.3-3-3.6-6-7.5-3-3.8-6.4-8.1-7.6-9.5-1.2-1.4-4.1-4.8-6.4-7.5-7.6-9.1-24.3-25.6-31.5-31-3.8-2.9-9.7-6.7-13-8.3-5.9-3-19.7-8-24.4-8.9-1.4-.2-2.8-.6-3.1-.8-2.9-1.8-45.1-9.4-61-11.1-2.5-.2-5.8-.6-7.5-.8-1.6-.3-6.1-.8-10-1.1-3.8-.4-8.1-.8-9.5-1-1.4-.2-7-.7-12.5-1-5.5-.4-11.8-.9-14-1.1-2.2-.2-8.9-.6-15-.9-6-.3-14.4-.8-18.5-1-9.8-.6-77.8-2.2-78.3-1.9z"/></svg>
