<svg version="1" xmlns="http://www.w3.org/2000/svg" width="1333.333" height="1333.333" viewBox="0 0 1000.000000 1000.000000"><path d="M466.4 2.8c-1.4.9-11.2 16.6-12.5 20-.6 1.5-1.6 4-2.4 5.7-.7 1.6-3 7.3-5 12.5-2.1 5.2-4 9.9-4.3 10.5-.4.5-.7 1.4-.9 2-.5 2.6-2.9 8.1-3.8 8.7-.5.4-.7.8-.3.8.4 0-.6 3.1-2.2 6.9-1.7 3.9-3 7.7-3 8.5 0 .9-.4 1.6-1 1.6-.5 0-1 .6-1 1.3 0 1.1-23.2 60.2-26.2 66.7-.6 1.4-1.2 2.9-1.4 3.5-.2.9-11.4 29.1-13.9 35-.5 1.1-.9 2.2-1 2.5-.3.8-1.5 3.8-6.6 16.5-2.7 6.5-4.9 12.5-4.9 13.2 0 .7-.5 1.3-1.2 1.3-.6 0-.9.3-.6.6.6.5-.2 2.9-3.7 10.9-1.5 3.5-2.7 6.6-3.1 8-.3 1.3-9.2 23.2-11 27.2-.8 1.7-1.4 3.8-1.4 4.7 0 .9-.3 1.6-.8 1.6-.4 0-1.3 1.9-2 4.2-.7 2.3-2.1 6-3.1 8.3-1 2.2-3 7.4-4.6 11.5-1.6 4.1-3.2 7.9-3.7 8.4-.4.6-.8 1.6-.8 2.4 0 .8-.7 2.8-1.5 4.5-.8 1.8-2.8 6.8-4.5 11.2-1.7 4.4-3.5 8.9-4 10-1.8 4.1-8.1 20-8.5 21.5-.2.8-1.1 3.3-2 5.5-2.5 5.8-3.8 8.9-4 9.5-.9 2.7-1.9 4.9-3.1 7.2-.8 1.6-1.3 2.8-.9 2.8.3 0-.2 1.1-1.1 2.4-.8 1.4-1.5 2.9-1.5 3.3.1.4-2.1 6.4-4.8 13.3-6.2 15.4-7.3 18.5-7 18.5.1 0-.4 1.1-1.1 2.5-.8 1.4-1.5 2.7-1.5 3-.1.3-.7 1.8-1.4 3.5-.7 1.6-1.4 3.4-1.5 4-.4 1.3-2.3 6.2-3.8 9.5-.6 1.4-1.5 3.5-1.9 4.7-.5 1.3-1.3 3.3-1.8 4.5-.5 1.3-4.4 11.1-8.6 21.8-4.2 10.7-8.3 20.9-9.1 22.7-.8 1.7-1.4 3.4-1.4 3.8 0 .4-.6 2.1-1.4 3.8-2.7 6.5-5.5 13.4-7.7 19.2-1.2 3.3-2.5 6.4-2.9 7-.7.9-1.7 4.6-2 7-.1.5-.6 1.5-1.1 2.2-1 1.2-2.6 5.7-3.7 10.8-1.2 5.3-.5 31 .8 31 .2 0 .7 2.2 1.5 6 .3 1.6.8 3.8 1.1 4.7.3.9.7 2.6.9 3.8.5 2.4 4.6 20.8 9.6 42.5 3.3 14.4 8.8 37.7 12.5 53 1.3 5.5 2.6 10.9 2.8 12 .9 4.5 5.8 24.1 6.3 25.5.3.8.8 2.6 1 3.9.2 1.3 2.2 9.3 4.3 17.7 2.2 8.4 4.1 16.4 4.4 17.6.2 1.3 1.1 4.7 1.9 7.6.9 2.9 1.6 5.4 1.7 5.7 0 .3.1.7.1 1 .3 1.1.5 2.2 1.3 5.5 1.4 5.8 6.4 15.3 11.4 21.6 3.3 4.1 11 10.6 25.7 21.6 11.6 8.7 21.7 16.4 22.6 17 .8.7 2.3 1.7 3.1 2.3 1.9 1.2 27.7 20.1 29.8 21.8.9.7 3.8 2.8 6.5 4.7 2.8 1.9 5.6 4 6.3 4.7.7.7 2.6 2 4.2 3 1.7.9 3 2.1 3 2.5 0 .4.4.8 1 .8 1.2 0 10.4 6.9 10.8 8.1.2.5.8.9 1.3.9.9 0 11.7 7.5 12.9 9 .3.3 1.8 1.4 3.5 2.4 1.6 1.1 3.4 2.3 4 2.8 2.1 1.7 12.8 9.6 24.2 17.8 6.5 4.7 12.7 9.3 13.7 10.2 1.1 1 2.6 1.8 3.3 1.8.7 0 1.3.4 1.3.8s4.4 3.9 9.8 7.7c5.3 3.9 10.4 7.5 11.2 8.2.8.7 4.9 3.7 9 6.7 4.1 3.1 8 5.9 8.5 6.4.6.4 4.6 3.4 9 6.7 4.4 3.2 8.6 6.5 9.3 7.2.7.7 1.7 1.3 2 1.3.4 0 1.9 1.1 3.3 2.4 3 2.8 16.3 10.9 18.7 11.3 7.3 1.5 12.3-.3 17.1-6 3.6-4.1 9.1-13.8 9.1-16 0-.9.4-1.7.8-1.7.6 0 2.9-4.9 3.7-8 .2-.6 5.5-12 10.6-22.7 2.1-4.6 3.9-8.5 3.9-8.7 0-.3 2.1-4.9 4.7-10.3s4.7-10 4.8-10.3c.4-1.1 2.5-5.9 5.8-13 8.9-19.1 11.7-25.2 11.7-25.6 0-.3 1.6-3.6 3.4-7.4 1.9-3.9 3.2-7 2.8-7-.4 0-.2-.4.3-.8.6-.4 2.4-3.6 3.9-7.2 1.6-3.6 4.8-10.6 7.1-15.5 2.3-5 5.2-11.3 6.5-14 1.2-2.8 3.7-8.2 5.5-12 1.8-3.9 4.3-9.3 5.5-12 1.3-2.8 4.4-9.5 7-15 2.6-5.5 5.7-12.3 7-15 1.2-2.8 4-8.8 6.1-13.3 2.2-4.6 3.9-8.6 3.9-8.8 0-.2 1.8-4 3.9-8.4 2.2-4.4 3.7-8 3.4-8-.3 0 .1-.8.9-1.8 1.6-1.8 3.3-6.1 3-7.5-.1-.4.2-.7.8-.7.5 0 1-.4 1-1 0-1 1.9-5.3 11.6-25.8 3-6.3 5.4-11.5 5.4-11.8 0-.4 3.6-8.3 9.6-21.2 2.4-5.1 4.4-9.5 4.4-9.8 0-.2 2-4.7 4.5-10 2.5-5.2 4.5-10.1 4.5-10.9 0-.8.4-1.5.8-1.5 1.5 0 4.5-13.9 4.5-21.3.1-8.7-.7-13.9-2.8-19.8-.9-2.4-1.7-4.9-1.9-5.4-.1-.6-4-8.7-8.6-18-4.6-9.4-8.4-17.2-8.5-17.5-.1-.5-4.5-9.6-18-37.5-14.8-30.5-22.9-47.4-30.9-64-4.2-8.8-8.1-16.7-8.6-17.5-.6-.8-1.4-2.5-1.9-3.6-1.6-3.5-9.4-20-17.5-36.5-4.1-8.6-8-16.7-8.6-18-.5-1.3-1.4-3.1-1.9-3.9-.6-.8-4.6-8.9-8.9-18-4.4-9.1-12.8-26.4-18.7-38.5-17.9-36.5-33-67.8-34.6-71.3-.7-1.7-1.7-3.2-2.1-3.2-.5 0-.8-.6-.8-1.4 0-.8-1.3-4-3-7.1-1.6-3.1-3-6.3-3-7 0-.7-.3-1.5-.7-1.7-.5-.2-2.7-4.1-4.9-8.8-2.3-4.7-7.2-14.8-10.9-22.5-3.7-7.7-11.8-24.1-17.8-36.5-6.1-12.4-11.1-22.7-11.2-23-.1-.5-12.4-25.5-33.1-67.5-5.9-12.1-10.8-22.2-10.9-22.5 0-.3-.4-1-.8-1.6-.4-.7-2.4-4.5-4.5-8.5C477 19.8 468 3 467.6 2.3c-.1-.1-.6.1-1.2.5z"/></svg>